<?xml version="1.0" encoding="UTF-8"?>
<svg width="200px" height="200px" viewBox="0 0 200 200" version="1.1" xmlns="http://www.w3.org/2000/svg" xmlns:xlink="http://www.w3.org/1999/xlink">
  <g stroke="none" stroke-width="1" fill="none" fill-rule="evenodd">
    <g stroke="#FFFFFF" stroke-width="0.5">
      <!-- Pattern elements -->
      <path d="M0,0 L200,200 M200,0 L0,200 M0,100 L100,0 M100,0 L200,100 M0,100 L100,200 M100,200 L200,100"></path>
      <circle cx="100" cy="100" r="50"></circle>
      <circle cx="100" cy="100" r="75"></circle>
      <path d="M25,25 L175,25 L175,175 L25,175 Z"></path>
      <path d="M50,50 L150,50 L150,150 L50,150 Z"></path>
      <path d="M0,0 L0,200 M20,0 L20,200 M40,0 L40,200 M60,0 L60,200 M80,0 L80,200 M100,0 L100,200 M120,0 L120,200 M140,0 L140,200 M160,0 L160,200 M180,0 L180,200"></path>
      <path d="M0,0 L200,0 M0,20 L200,20 M0,40 L200,40 M0,60 L200,60 M0,80 L200,80 M0,100 L200,100 M0,120 L200,120 M0,140 L200,140 M0,160 L200,160 M0,180 L200,180"></path>
    </g>
  </g>
</svg>